<?xml version="1.0" encoding="utf-8"?>
<!-- Generator: Adobe Illustrator 16.0.3, SVG Export Plug-In . SVG Version: 6.00 Build 0)  -->
<!DOCTYPE svg PUBLIC "-//W3C//DTD SVG 1.1//EN" "http://www.w3.org/Graphics/SVG/1.1/DTD/svg11.dtd">
<svg version="1.1" id="Layer_1" xmlns="http://www.w3.org/2000/svg" xmlns:xlink="http://www.w3.org/1999/xlink" x="0px" y="0px"
	 width="24px" height="24px" viewBox="0 0 24 24" enable-background="new 0 0 24 24" xml:space="preserve">
<rect x="1.2" y="1.2" fill="none" width="21.6" height="21.6"/>
<path fill="none" stroke="#010101" stroke-width="1.2" stroke-linecap="round" stroke-linejoin="round" d="M5.25,4.576h13.5
	c0.371,0,0.675,0.302,0.675,0.674v13.498c0,0.373-0.304,0.677-0.675,0.677H5.25c-0.372,0-0.674-0.304-0.674-0.677V5.25
	C4.576,4.878,4.878,4.576,5.25,4.576z"/>
<line fill="none" stroke="#010101" stroke-width="1.2" stroke-linecap="round" stroke-linejoin="round" x1="16.049" y1="3.225" x2="16.049" y2="5.924"/>
<line fill="none" stroke="#010101" stroke-width="1.2" stroke-linecap="round" stroke-linejoin="round" x1="7.949" y1="3.225" x2="7.949" y2="5.924"/>
<line fill="none" stroke="#010101" stroke-width="1.2" stroke-linecap="round" stroke-linejoin="round" x1="4.576" y1="8.624" x2="19.425" y2="8.624"/>
<rect x="7.809" y="12.002" fill="#010101" width="1.487" height="1.488"/>
<rect x="11.201" y="12.002" fill="#010101" width="1.487" height="1.488"/>
<rect x="14.594" y="12.002" fill="#010101" width="1.488" height="1.488"/>
<rect x="7.809" y="14.854" fill="#010101" width="1.487" height="1.487"/>
<rect x="11.201" y="14.854" fill="#010101" width="1.487" height="1.487"/>
<rect x="14.594" y="14.854" fill="#010101" width="1.488" height="1.487"/>
</svg>
